<mxfile host="app.diagrams.net" modified="2022-04-29T13:29:38.194Z" agent="5.0 (Windows NT 10.0; Win64; x64) AppleWebKit/537.36 (KHTML, like Gecko) Chrome/100.0.4896.127 Safari/537.36 Edg/100.0.1185.50" etag="Ue9iKC08SkEIOmMRtqCn" version="17.4.6" type="github">
  <diagram id="e07ROVNEvM9aTlxhHvJc" name="Page-1">
    <mxGraphModel dx="1038" dy="1679" grid="1" gridSize="10" guides="1" tooltips="1" connect="1" arrows="1" fold="1" page="1" pageScale="1" pageWidth="850" pageHeight="1100" math="0" shadow="0">
      <root>
        <mxCell id="0" />
        <mxCell id="1" parent="0" />
        <mxCell id="QO8tVGwjFVoPm757-QDn-3" value="" style="edgeStyle=orthogonalEdgeStyle;rounded=0;orthogonalLoop=1;jettySize=auto;html=1;" edge="1" parent="1" source="QO8tVGwjFVoPm757-QDn-1" target="QO8tVGwjFVoPm757-QDn-2">
          <mxGeometry relative="1" as="geometry" />
        </mxCell>
        <mxCell id="QO8tVGwjFVoPm757-QDn-1" value="start" style="rounded=1;whiteSpace=wrap;html=1;" vertex="1" parent="1">
          <mxGeometry x="80" y="40" width="90" height="20" as="geometry" />
        </mxCell>
        <mxCell id="QO8tVGwjFVoPm757-QDn-5" value="" style="edgeStyle=orthogonalEdgeStyle;rounded=0;orthogonalLoop=1;jettySize=auto;html=1;" edge="1" parent="1" source="QO8tVGwjFVoPm757-QDn-2" target="QO8tVGwjFVoPm757-QDn-4">
          <mxGeometry relative="1" as="geometry" />
        </mxCell>
        <mxCell id="QO8tVGwjFVoPm757-QDn-2" value="IF pop in queue &amp;gt;= queue slot" style="rhombus;whiteSpace=wrap;html=1;" vertex="1" parent="1">
          <mxGeometry x="85" y="110" width="80" height="80" as="geometry" />
        </mxCell>
        <mxCell id="QO8tVGwjFVoPm757-QDn-7" value="" style="edgeStyle=orthogonalEdgeStyle;rounded=0;orthogonalLoop=1;jettySize=auto;html=1;" edge="1" parent="1" source="QO8tVGwjFVoPm757-QDn-4" target="QO8tVGwjFVoPm757-QDn-6">
          <mxGeometry relative="1" as="geometry" />
        </mxCell>
        <mxCell id="QO8tVGwjFVoPm757-QDn-4" value="IF pop has&amp;nbsp;waitingFor&lt;br&gt;Queue as false" style="rhombus;whiteSpace=wrap;html=1;" vertex="1" parent="1">
          <mxGeometry x="85" y="250" width="85" height="80" as="geometry" />
        </mxCell>
        <mxCell id="QO8tVGwjFVoPm757-QDn-9" value="" style="edgeStyle=orthogonalEdgeStyle;rounded=0;orthogonalLoop=1;jettySize=auto;html=1;" edge="1" parent="1" source="QO8tVGwjFVoPm757-QDn-6" target="QO8tVGwjFVoPm757-QDn-8">
          <mxGeometry relative="1" as="geometry" />
        </mxCell>
        <mxCell id="QO8tVGwjFVoPm757-QDn-6" value="IF pop has find nearest point&amp;nbsp;" style="rhombus;whiteSpace=wrap;html=1;" vertex="1" parent="1">
          <mxGeometry x="87.5" y="370" width="80" height="80" as="geometry" />
        </mxCell>
        <mxCell id="QO8tVGwjFVoPm757-QDn-11" style="edgeStyle=orthogonalEdgeStyle;rounded=0;orthogonalLoop=1;jettySize=auto;html=1;entryX=0.5;entryY=0;entryDx=0;entryDy=0;" edge="1" parent="1" source="QO8tVGwjFVoPm757-QDn-8" target="QO8tVGwjFVoPm757-QDn-10">
          <mxGeometry relative="1" as="geometry" />
        </mxCell>
        <mxCell id="QO8tVGwjFVoPm757-QDn-8" value="call find nearest exit point function" style="rounded=1;whiteSpace=wrap;html=1;fillColor=#f8cecc;gradientColor=#ea6b66;strokeColor=#b85450;" vertex="1" parent="1">
          <mxGeometry x="67.5" y="480" width="120" height="60" as="geometry" />
        </mxCell>
        <mxCell id="QO8tVGwjFVoPm757-QDn-13" value="" style="edgeStyle=orthogonalEdgeStyle;rounded=0;orthogonalLoop=1;jettySize=auto;html=1;" edge="1" parent="1" source="QO8tVGwjFVoPm757-QDn-10" target="QO8tVGwjFVoPm757-QDn-12">
          <mxGeometry relative="1" as="geometry" />
        </mxCell>
        <mxCell id="QO8tVGwjFVoPm757-QDn-10" value="call set for queue waiting patience value and return" style="rounded=1;whiteSpace=wrap;html=1;fillColor=#f8cecc;gradientColor=#ea6b66;strokeColor=#b85450;" vertex="1" parent="1">
          <mxGeometry x="240" y="20" width="120" height="60" as="geometry" />
        </mxCell>
        <mxCell id="QO8tVGwjFVoPm757-QDn-15" value="" style="edgeStyle=orthogonalEdgeStyle;rounded=0;orthogonalLoop=1;jettySize=auto;html=1;" edge="1" parent="1" source="QO8tVGwjFVoPm757-QDn-12" target="QO8tVGwjFVoPm757-QDn-14">
          <mxGeometry relative="1" as="geometry" />
        </mxCell>
        <mxCell id="QO8tVGwjFVoPm757-QDn-12" value="get the queue remain slot" style="rounded=0;whiteSpace=wrap;html=1;" vertex="1" parent="1">
          <mxGeometry x="240" y="120" width="120" height="60" as="geometry" />
        </mxCell>
        <mxCell id="QO8tVGwjFVoPm757-QDn-19" value="" style="edgeStyle=orthogonalEdgeStyle;rounded=0;orthogonalLoop=1;jettySize=auto;html=1;" edge="1" parent="1" source="QO8tVGwjFVoPm757-QDn-14" target="QO8tVGwjFVoPm757-QDn-18">
          <mxGeometry relative="1" as="geometry" />
        </mxCell>
        <mxCell id="QO8tVGwjFVoPm757-QDn-14" value="IF remain slot &amp;lt; pop grp length" style="rhombus;whiteSpace=wrap;html=1;rounded=0;" vertex="1" parent="1">
          <mxGeometry x="260" y="220" width="80" height="80" as="geometry" />
        </mxCell>
        <mxCell id="QO8tVGwjFVoPm757-QDn-21" value="" style="edgeStyle=orthogonalEdgeStyle;rounded=0;orthogonalLoop=1;jettySize=auto;html=1;" edge="1" parent="1" source="QO8tVGwjFVoPm757-QDn-18" target="QO8tVGwjFVoPm757-QDn-20">
          <mxGeometry relative="1" as="geometry" />
        </mxCell>
        <mxCell id="QO8tVGwjFVoPm757-QDn-18" value="get the over queue points and remain pop count" style="rounded=0;whiteSpace=wrap;html=1;" vertex="1" parent="1">
          <mxGeometry x="240" y="340" width="120" height="60" as="geometry" />
        </mxCell>
        <mxCell id="QO8tVGwjFVoPm757-QDn-23" value="" style="edgeStyle=orthogonalEdgeStyle;rounded=0;orthogonalLoop=1;jettySize=auto;html=1;" edge="1" parent="1" source="QO8tVGwjFVoPm757-QDn-20" target="QO8tVGwjFVoPm757-QDn-22">
          <mxGeometry relative="1" as="geometry" />
        </mxCell>
        <mxCell id="QO8tVGwjFVoPm757-QDn-20" value="FOR remain pop grp&amp;nbsp;" style="rhombus;whiteSpace=wrap;html=1;rounded=0;" vertex="1" parent="1">
          <mxGeometry x="260" y="450" width="80" height="80" as="geometry" />
        </mxCell>
        <mxCell id="QO8tVGwjFVoPm757-QDn-24" style="edgeStyle=orthogonalEdgeStyle;rounded=0;orthogonalLoop=1;jettySize=auto;html=1;entryX=0;entryY=0.5;entryDx=0;entryDy=0;" edge="1" parent="1" source="QO8tVGwjFVoPm757-QDn-22" target="QO8tVGwjFVoPm757-QDn-20">
          <mxGeometry relative="1" as="geometry">
            <Array as="points">
              <mxPoint x="240" y="590" />
              <mxPoint x="240" y="490" />
            </Array>
          </mxGeometry>
        </mxCell>
        <mxCell id="QO8tVGwjFVoPm757-QDn-25" value="next pop" style="edgeLabel;html=1;align=center;verticalAlign=middle;resizable=0;points=[];" vertex="1" connectable="0" parent="QO8tVGwjFVoPm757-QDn-24">
          <mxGeometry x="-0.1629" y="1" relative="1" as="geometry">
            <mxPoint as="offset" />
          </mxGeometry>
        </mxCell>
        <mxCell id="QO8tVGwjFVoPm757-QDn-27" style="edgeStyle=orthogonalEdgeStyle;rounded=0;orthogonalLoop=1;jettySize=auto;html=1;entryX=0.5;entryY=0;entryDx=0;entryDy=0;" edge="1" parent="1" source="QO8tVGwjFVoPm757-QDn-22" target="QO8tVGwjFVoPm757-QDn-26">
          <mxGeometry relative="1" as="geometry" />
        </mxCell>
        <mxCell id="QO8tVGwjFVoPm757-QDn-22" value="store the over queue point to queue slot" style="shape=dataStorage;whiteSpace=wrap;html=1;fixedSize=1;" vertex="1" parent="1">
          <mxGeometry x="260" y="560" width="80" height="50" as="geometry" />
        </mxCell>
        <mxCell id="QO8tVGwjFVoPm757-QDn-29" value="" style="edgeStyle=orthogonalEdgeStyle;rounded=0;orthogonalLoop=1;jettySize=auto;html=1;" edge="1" parent="1" source="QO8tVGwjFVoPm757-QDn-26" target="QO8tVGwjFVoPm757-QDn-28">
          <mxGeometry relative="1" as="geometry" />
        </mxCell>
        <mxCell id="QO8tVGwjFVoPm757-QDn-26" value="initialize the pop grp generation order" style="rounded=0;whiteSpace=wrap;html=1;" vertex="1" parent="1">
          <mxGeometry x="450" y="30" width="120" height="60" as="geometry" />
        </mxCell>
        <mxCell id="QO8tVGwjFVoPm757-QDn-31" value="" style="edgeStyle=orthogonalEdgeStyle;rounded=0;orthogonalLoop=1;jettySize=auto;html=1;" edge="1" parent="1" source="QO8tVGwjFVoPm757-QDn-28" target="QO8tVGwjFVoPm757-QDn-30">
          <mxGeometry relative="1" as="geometry" />
        </mxCell>
        <mxCell id="QO8tVGwjFVoPm757-QDn-28" value="FOR pop grp&amp;nbsp;" style="rhombus;whiteSpace=wrap;html=1;rounded=0;" vertex="1" parent="1">
          <mxGeometry x="470" y="130" width="80" height="80" as="geometry" />
        </mxCell>
        <mxCell id="QO8tVGwjFVoPm757-QDn-33" value="" style="edgeStyle=orthogonalEdgeStyle;rounded=0;orthogonalLoop=1;jettySize=auto;html=1;" edge="1" parent="1" source="QO8tVGwjFVoPm757-QDn-30" target="QO8tVGwjFVoPm757-QDn-32">
          <mxGeometry relative="1" as="geometry" />
        </mxCell>
        <mxCell id="QO8tVGwjFVoPm757-QDn-37" value="" style="edgeStyle=orthogonalEdgeStyle;rounded=0;orthogonalLoop=1;jettySize=auto;html=1;" edge="1" parent="1" source="QO8tVGwjFVoPm757-QDn-30" target="QO8tVGwjFVoPm757-QDn-36">
          <mxGeometry relative="1" as="geometry" />
        </mxCell>
        <mxCell id="QO8tVGwjFVoPm757-QDn-30" value="IF current pop gen &amp;lt;= previous pop gen" style="rhombus;whiteSpace=wrap;html=1;rounded=0;" vertex="1" parent="1">
          <mxGeometry x="470" y="240" width="80" height="80" as="geometry" />
        </mxCell>
        <mxCell id="QO8tVGwjFVoPm757-QDn-42" value="" style="edgeStyle=orthogonalEdgeStyle;rounded=0;orthogonalLoop=1;jettySize=auto;html=1;" edge="1" parent="1" source="QO8tVGwjFVoPm757-QDn-32" target="QO8tVGwjFVoPm757-QDn-41">
          <mxGeometry relative="1" as="geometry" />
        </mxCell>
        <mxCell id="QO8tVGwjFVoPm757-QDn-32" value="set the least pop gen&amp;nbsp; and store into first index" style="whiteSpace=wrap;html=1;rounded=0;" vertex="1" parent="1">
          <mxGeometry x="450" y="370" width="120" height="60" as="geometry" />
        </mxCell>
        <mxCell id="QO8tVGwjFVoPm757-QDn-39" value="" style="edgeStyle=orthogonalEdgeStyle;rounded=0;orthogonalLoop=1;jettySize=auto;html=1;" edge="1" parent="1" source="QO8tVGwjFVoPm757-QDn-36" target="QO8tVGwjFVoPm757-QDn-38">
          <mxGeometry relative="1" as="geometry" />
        </mxCell>
        <mxCell id="QO8tVGwjFVoPm757-QDn-36" value="ELSE&amp;nbsp;" style="rhombus;whiteSpace=wrap;html=1;rounded=0;" vertex="1" parent="1">
          <mxGeometry x="630" y="240" width="80" height="80" as="geometry" />
        </mxCell>
        <mxCell id="QO8tVGwjFVoPm757-QDn-40" style="edgeStyle=orthogonalEdgeStyle;rounded=0;orthogonalLoop=1;jettySize=auto;html=1;entryX=0;entryY=0.5;entryDx=0;entryDy=0;" edge="1" parent="1" source="QO8tVGwjFVoPm757-QDn-38" target="QO8tVGwjFVoPm757-QDn-28">
          <mxGeometry relative="1" as="geometry">
            <Array as="points">
              <mxPoint x="670" y="450" />
              <mxPoint x="430" y="450" />
              <mxPoint x="430" y="170" />
            </Array>
          </mxGeometry>
        </mxCell>
        <mxCell id="QO8tVGwjFVoPm757-QDn-43" value="next pop" style="edgeLabel;html=1;align=center;verticalAlign=middle;resizable=0;points=[];" vertex="1" connectable="0" parent="QO8tVGwjFVoPm757-QDn-40">
          <mxGeometry x="0.3363" y="1" relative="1" as="geometry">
            <mxPoint as="offset" />
          </mxGeometry>
        </mxCell>
        <mxCell id="QO8tVGwjFVoPm757-QDn-38" value="Store pop into order" style="shape=dataStorage;whiteSpace=wrap;html=1;fixedSize=1;" vertex="1" parent="1">
          <mxGeometry x="630" y="370" width="80" height="50" as="geometry" />
        </mxCell>
        <mxCell id="QO8tVGwjFVoPm757-QDn-45" value="" style="edgeStyle=orthogonalEdgeStyle;rounded=0;orthogonalLoop=1;jettySize=auto;html=1;" edge="1" parent="1" source="QO8tVGwjFVoPm757-QDn-41" target="QO8tVGwjFVoPm757-QDn-44">
          <mxGeometry relative="1" as="geometry">
            <Array as="points">
              <mxPoint x="730" y="520" />
              <mxPoint x="730" y="60" />
            </Array>
          </mxGeometry>
        </mxCell>
        <mxCell id="QO8tVGwjFVoPm757-QDn-41" value="FOR order pop grp&amp;nbsp;" style="rhombus;whiteSpace=wrap;html=1;rounded=0;" vertex="1" parent="1">
          <mxGeometry x="470" y="480" width="80" height="80" as="geometry" />
        </mxCell>
        <mxCell id="QO8tVGwjFVoPm757-QDn-47" value="" style="edgeStyle=orthogonalEdgeStyle;rounded=0;orthogonalLoop=1;jettySize=auto;html=1;" edge="1" parent="1" source="QO8tVGwjFVoPm757-QDn-44" target="QO8tVGwjFVoPm757-QDn-46">
          <mxGeometry relative="1" as="geometry" />
        </mxCell>
        <mxCell id="QO8tVGwjFVoPm757-QDn-44" value="remove the pop into pre service point" style="whiteSpace=wrap;html=1;rounded=0;" vertex="1" parent="1">
          <mxGeometry x="750" y="30" width="120" height="60" as="geometry" />
        </mxCell>
        <mxCell id="QO8tVGwjFVoPm757-QDn-49" value="" style="edgeStyle=orthogonalEdgeStyle;rounded=0;orthogonalLoop=1;jettySize=auto;html=1;" edge="1" parent="1" source="QO8tVGwjFVoPm757-QDn-46" target="QO8tVGwjFVoPm757-QDn-48">
          <mxGeometry relative="1" as="geometry" />
        </mxCell>
        <mxCell id="QO8tVGwjFVoPm757-QDn-46" value="Store pop into queue" style="shape=dataStorage;whiteSpace=wrap;html=1;fixedSize=1;" vertex="1" parent="1">
          <mxGeometry x="770" y="130" width="80" height="50" as="geometry" />
        </mxCell>
        <mxCell id="QO8tVGwjFVoPm757-QDn-51" value="" style="edgeStyle=orthogonalEdgeStyle;rounded=0;orthogonalLoop=1;jettySize=auto;html=1;" edge="1" parent="1" source="QO8tVGwjFVoPm757-QDn-48" target="QO8tVGwjFVoPm757-QDn-50">
          <mxGeometry relative="1" as="geometry" />
        </mxCell>
        <mxCell id="QO8tVGwjFVoPm757-QDn-48" value="get the q slot and set target to pop" style="whiteSpace=wrap;html=1;rounded=0;" vertex="1" parent="1">
          <mxGeometry x="760" y="210" width="120" height="60" as="geometry" />
        </mxCell>
        <mxCell id="QO8tVGwjFVoPm757-QDn-54" value="" style="edgeStyle=orthogonalEdgeStyle;rounded=0;orthogonalLoop=1;jettySize=auto;html=1;" edge="1" parent="1" source="QO8tVGwjFVoPm757-QDn-50" target="QO8tVGwjFVoPm757-QDn-52">
          <mxGeometry relative="1" as="geometry" />
        </mxCell>
        <mxCell id="QO8tVGwjFVoPm757-QDn-50" value="set pop as point given flag" style="whiteSpace=wrap;html=1;rounded=0;" vertex="1" parent="1">
          <mxGeometry x="760" y="300" width="120" height="60" as="geometry" />
        </mxCell>
        <mxCell id="QO8tVGwjFVoPm757-QDn-56" value="" style="edgeStyle=orthogonalEdgeStyle;rounded=0;orthogonalLoop=1;jettySize=auto;html=1;" edge="1" parent="1" source="QO8tVGwjFVoPm757-QDn-52" target="QO8tVGwjFVoPm757-QDn-55">
          <mxGeometry relative="1" as="geometry" />
        </mxCell>
        <mxCell id="QO8tVGwjFVoPm757-QDn-52" value="set the agent max speed&amp;nbsp;" style="rounded=1;whiteSpace=wrap;html=1;fillColor=#ffcc99;strokeColor=#36393d;" vertex="1" parent="1">
          <mxGeometry x="760" y="400" width="120" height="60" as="geometry" />
        </mxCell>
        <mxCell id="QO8tVGwjFVoPm757-QDn-58" style="edgeStyle=orthogonalEdgeStyle;rounded=0;orthogonalLoop=1;jettySize=auto;html=1;entryX=0;entryY=0.5;entryDx=0;entryDy=0;" edge="1" parent="1" source="QO8tVGwjFVoPm757-QDn-55" target="QO8tVGwjFVoPm757-QDn-57">
          <mxGeometry relative="1" as="geometry" />
        </mxCell>
        <mxCell id="QO8tVGwjFVoPm757-QDn-55" value="IF pop wating for queue is true" style="rhombus;whiteSpace=wrap;html=1;" vertex="1" parent="1">
          <mxGeometry x="780" y="490" width="80" height="80" as="geometry" />
        </mxCell>
        <mxCell id="QO8tVGwjFVoPm757-QDn-60" value="" style="edgeStyle=orthogonalEdgeStyle;rounded=0;orthogonalLoop=1;jettySize=auto;html=1;" edge="1" parent="1" source="QO8tVGwjFVoPm757-QDn-57" target="QO8tVGwjFVoPm757-QDn-59">
          <mxGeometry relative="1" as="geometry" />
        </mxCell>
        <mxCell id="QO8tVGwjFVoPm757-QDn-57" value="call&amp;nbsp;&amp;nbsp;settings&lt;br&gt;WaitingForQueue&lt;br&gt;TimeOut" style="rounded=1;whiteSpace=wrap;html=1;fillColor=#f8cecc;gradientColor=#ea6b66;strokeColor=#b85450;" vertex="1" parent="1">
          <mxGeometry x="930" y="40" width="120" height="60" as="geometry" />
        </mxCell>
        <mxCell id="QO8tVGwjFVoPm757-QDn-62" value="" style="edgeStyle=orthogonalEdgeStyle;rounded=0;orthogonalLoop=1;jettySize=auto;html=1;" edge="1" parent="1" source="QO8tVGwjFVoPm757-QDn-59" target="QO8tVGwjFVoPm757-QDn-61">
          <mxGeometry relative="1" as="geometry" />
        </mxCell>
        <mxCell id="QO8tVGwjFVoPm757-QDn-59" value="set moving animation" style="rounded=0;whiteSpace=wrap;html=1;" vertex="1" parent="1">
          <mxGeometry x="930" y="150" width="120" height="60" as="geometry" />
        </mxCell>
        <mxCell id="QO8tVGwjFVoPm757-QDn-61" value="end" style="ellipse;whiteSpace=wrap;html=1;rounded=0;" vertex="1" parent="1">
          <mxGeometry x="930" y="290" width="120" height="60" as="geometry" />
        </mxCell>
      </root>
    </mxGraphModel>
  </diagram>
</mxfile>
